<?xml version="1.0" standalone="no"?>
<!DOCTYPE svg PUBLIC "-//W3C//DTD SVG 20010904//EN"
 "http://www.w3.org/TR/2001/REC-SVG-20010904/DTD/svg10.dtd">
<svg version="1.0" xmlns="http://www.w3.org/2000/svg"
 width="300.000000pt" height="300.000000pt" viewBox="0 0 300.000000 300.000000"
 preserveAspectRatio="xMidYMid meet">
<metadata>
Created by potrace 1.14, written by Peter Selinger 2001-2017
</metadata>
<g transform="translate(0.000000,300.000000) scale(0.100000,-0.100000)"
fill="#000000" stroke="none">
<path d="M0 1500 l0 -1500 1500 0 1500 0 0 1500 0 1500 -1500 0 -1500 0 0
-1500z m1683 1070 c-9 -16 -21 -30 -25 -30 -4 0 -2 14 3 30 6 17 18 30 26 30
12 0 11 -5 -4 -30z m-83 -5 c17 -20 4 -32 -19 -18 -23 14 -61 6 -61 -13 0 -7
18 -18 39 -24 53 -14 64 -45 27 -77 -47 -40 -146 -24 -146 24 0 19 17 16 50
-9 25 -18 33 -20 55 -10 38 17 31 40 -16 52 -52 14 -60 36 -25 67 31 26 78 30
96 8z m-256 -87 c6 -90 -6 -122 -19 -48 -4 22 -10 40 -13 40 -4 0 -22 -9 -40
-20 -28 -17 -33 -26 -30 -52 5 -48 -19 -46 -27 3 l-7 41 -18 -39 c-18 -42 -62
-83 -88 -83 -50 0 -67 72 -33 147 22 46 47 65 79 56 35 -9 28 -34 -8 -27 -27
6 -31 3 -44 -28 -25 -59 -28 -82 -13 -103 12 -16 19 -17 39 -8 23 10 56 58 46
68 -3 3 -22 -2 -42 -10 -21 -9 -35 -11 -31 -5 11 17 86 52 101 46 11 -4 14 5
14 39 0 24 5 47 10 50 6 4 10 -10 10 -34 0 -46 3 -47 54 -26 29 12 36 21 36
43 0 25 9 48 15 40 1 -2 5 -42 9 -90z m443 19 c-3 -24 -9 -52 -13 -62 -3 -11
16 5 44 35 27 30 53 52 57 48 4 -4 0 -35 -9 -70 -9 -36 -16 -74 -16 -86 0 -13
-6 -22 -15 -22 -18 0 -19 12 -4 63 6 22 8 41 5 44 -2 3 -19 -15 -36 -39 -17
-23 -34 -43 -38 -43 -4 0 -9 25 -12 55 l-5 55 -23 -47 c-13 -27 -30 -48 -38
-48 -18 0 -18 3 6 49 20 40 81 111 95 111 4 0 5 -19 2 -43z m227 -23 c28 -28
20 -82 -18 -120 -40 -40 -85 -45 -116 -14 -24 24 -24 30 -6 75 25 60 106 94
140 59z m-1000 -41 c12 -75 7 -108 -18 -133 -28 -26 -71 -30 -92 -8 -21 21
-41 135 -26 150 11 11 14 4 27 -74 5 -35 27 -68 44 -68 4 0 16 6 27 14 16 12
19 25 16 85 -3 75 11 97 22 34z m1143 -3 c58 -35 54 -92 -7 -105 -26 -6 -28
-9 -19 -31 5 -14 9 -30 9 -35 0 -16 -18 -10 -24 9 -4 9 -15 28 -26 42 l-20 25
-24 -30 c-21 -25 -26 -27 -31 -13 -11 29 69 158 98 158 7 0 27 -9 44 -20z
m-1323 -96 c50 -78 56 -102 16 -59 -13 14 -29 25 -37 25 -21 0 -53 -38 -53
-64 0 -14 -5 -28 -12 -32 -8 -5 -9 11 -5 62 8 78 24 144 36 144 4 0 29 -34 55
-76z m1489 40 c26 -9 47 -19 47 -23 0 -14 -13 -21 -24 -12 -6 5 -27 12 -47 16
-29 5 -38 3 -43 -10 -9 -23 -1 -31 34 -38 16 -4 30 -11 30 -17 0 -12 -16 -13
-57 -1 -24 7 -35 6 -44 -5 -17 -21 -4 -41 30 -49 30 -6 48 -21 38 -32 -10 -9
-108 28 -114 43 -6 16 75 144 92 144 6 0 32 -7 58 -16z m96 -72 c-28 -47 -59
-81 -59 -64 0 7 7 24 15 37 8 14 22 36 30 50 9 14 20 23 26 20 6 -4 1 -21 -12
-43z m-1798 2 c4 -16 7 -46 8 -66 1 -44 15 -48 55 -17 19 15 31 18 38 11 8 -8
-3 -20 -38 -41 -26 -17 -53 -31 -60 -31 -7 0 -14 25 -18 61 -4 33 -11 71 -16
84 -5 13 -6 26 -2 29 12 12 27 -1 33 -30z m1140 -48 c258 -85 594 -203 724
-255 l90 -36 3 -42 c2 -23 -1 -74 -7 -113 -8 -57 -6 -77 6 -110 14 -35 14 -46
3 -83 -7 -23 -14 -59 -15 -79 -1 -45 -23 -71 -93 -110 -54 -31 -80 -56 -154
-147 -77 -97 -75 -96 -271 -97 -195 0 -205 -3 -308 -88 -67 -55 -111 -74 -187
-82 -103 -11 -184 13 -317 91 -65 39 -60 39 -267 19 -83 -8 -124 18 -193 122
-30 45 -64 89 -77 98 -13 9 -59 28 -103 41 -92 28 -146 67 -177 128 -17 35
-20 53 -15 119 3 44 1 78 -4 78 -5 0 -9 45 -9 100 l0 100 68 34 c221 111 956
384 1038 385 26 1 125 -27 265 -73z m-1256 54 c3 -5 1 -10 -4 -10 -6 0 -11 5
-11 10 0 6 2 10 4 10 3 0 8 -4 11 -10z m2082 -36 c5 -14 -11 -33 -28 -34 -12
0 -17 39 -5 44 20 8 27 6 33 -10z m-2027 -4 c0 -5 -4 -10 -10 -10 -5 0 -10 5
-10 10 0 6 5 10 10 10 6 0 10 -4 10 -10z m1944 -24 c18 7 22 -11 5 -22 -6 -3
-9 -15 -6 -25 5 -20 -7 -26 -18 -9 -3 6 -15 10 -26 10 -10 0 -19 5 -19 10 0 6
5 10 10 10 6 0 10 12 10 28 1 25 2 25 14 9 8 -10 20 -15 30 -11z m-2034 -11
c0 -8 -7 -15 -15 -15 -8 0 -15 7 -15 15 0 8 7 15 15 15 8 0 15 -7 15 -15z m83
-2 c21 -6 21 -12 1 -51 -15 -31 -16 -31 -42 -15 -15 9 -28 17 -29 18 -2 1 3
16 9 33 9 23 17 31 28 26 8 -3 23 -9 33 -11z m1877 13 c0 -3 -4 -8 -10 -11 -5
-3 -10 -1 -10 4 0 6 5 11 10 11 6 0 10 -2 10 -4z m-80 -56 c0 -5 -4 -10 -10
-10 -5 0 -10 5 -10 10 0 6 5 10 10 10 6 0 10 -4 10 -10z m210 0 c0 -5 -4 -10
-10 -10 -5 0 -10 5 -10 10 0 6 5 10 10 10 6 0 10 -4 10 -10z m-2125 -20 c3 -5
1 -10 -4 -10 -6 0 -11 5 -11 10 0 6 2 10 4 10 3 0 8 -4 11 -10z m2045 -30 c0
-5 -4 -10 -10 -10 -5 0 -10 5 -10 10 0 6 5 10 10 10 6 0 10 -4 10 -10z m85
-10 c3 -5 1 -10 -4 -10 -6 0 -11 5 -11 10 0 6 2 10 4 10 3 0 8 -4 11 -10z
m-2082 -6 c23 -8 10 -43 -14 -37 -21 6 -21 6 -13 27 7 18 7 18 27 10z m2107
-712 c0 -34 -22 -84 -32 -72 -2 3 -2 29 0 58 3 36 8 52 18 52 10 0 14 -12 14
-38z m-60 -92 c0 -5 -4 -10 -10 -10 -5 0 -10 5 -10 10 0 6 5 10 10 10 6 0 10
-4 10 -10z m67 -79 c5 -44 3 -52 -20 -73 -69 -64 -777 -440 -916 -486 -85 -29
-109 -28 -228 8 -167 49 -696 251 -1006 384 l-37 16 0 90 c0 77 3 91 19 99 14
8 23 6 37 -10 10 -11 50 -35 89 -53 52 -25 86 -50 132 -99 34 -36 76 -73 92
-82 17 -8 77 -20 133 -25 134 -13 128 -12 305 -67 84 -27 153 -53 153 -60 0
-20 130 -57 200 -57 73 0 137 20 299 93 58 26 118 51 134 55 15 3 27 13 27 21
0 21 -8 19 -86 -14 -321 -135 -352 -144 -446 -120 l-53 13 75 7 c95 10 175 39
242 90 68 51 99 59 233 56 99 -1 115 1 165 24 30 14 87 49 126 77 39 29 124
83 190 120 132 76 131 76 141 -7z m-1949 -19 c15 -16 35 -38 45 -51 13 -16 26
-22 44 -18 16 3 21 1 15 -5 -19 -19 -56 -3 -82 36 -15 21 -38 45 -51 52 -13 7
-18 13 -11 14 8 0 26 -13 40 -28z m1592 -61 c0 -16 -80 -92 -90 -86 -12 7 60
94 78 95 6 0 12 -4 12 -9z m-200 -50 c-36 -46 -57 -56 -91 -41 -23 10 -23 10
5 6 23 -3 38 4 70 35 23 21 43 39 44 39 2 0 -10 -18 -28 -39z m-803 -67 c-3
-3 -30 -7 -60 -7 -30 -1 -50 1 -44 5 14 9 113 11 104 2z m363 -84 c-19 -12
-47 -13 -54 -1 -3 4 5 6 18 4 13 -3 27 0 31 7 4 6 10 9 13 5 4 -3 0 -10 -8
-15z m-930 -100 c0 -5 -4 -10 -10 -10 -5 0 -10 5 -10 10 0 6 5 10 10 10 6 0
10 -4 10 -10z m-15 -30 c3 -5 1 -10 -4 -10 -6 0 -11 5 -11 10 0 6 2 10 4 10 3
0 8 -4 11 -10z m1648 -10 c-3 -11 -14 -20 -24 -20 -12 0 -19 7 -19 20 0 14 7
20 24 20 19 0 23 -4 19 -20z m-1589 -45 c5 -16 0 -23 -24 -32 -33 -12 -34 -11
-44 30 -5 22 -3 27 13 27 11 0 23 5 27 11 7 13 17 1 28 -36z m57 -17 c-19 -53
-12 -55 29 -9 22 24 43 41 46 38 3 -3 -1 -28 -10 -56 -8 -28 -12 -51 -8 -51 3
0 23 19 42 42 20 22 42 39 49 37 14 -5 -103 -139 -121 -139 -10 0 -5 45 8 88
3 9 -12 -3 -34 -27 -25 -29 -41 -40 -46 -32 -7 11 13 92 36 149 9 22 12 24 15
9 3 -10 0 -32 -6 -49z m-166 42 c3 -5 1 -10 -4 -10 -6 0 -11 5 -11 10 0 6 2
10 4 10 3 0 8 -4 11 -10z m1543 -17 c2 -8 -5 -13 -16 -13 -22 0 -57 -34 -48
-48 3 -6 21 -5 44 1 51 14 72 5 72 -30 0 -32 -24 -65 -58 -82 -29 -15 -82 -5
-82 16 0 11 6 14 25 9 38 -10 84 19 85 52 0 10 -13 12 -55 7 l-55 -7 0 31 c0
52 74 105 88 64z m129 -20 c0 -16 -14 -32 -27 -33 -14 0 -7 39 8 43 9 3 17 5
18 6 0 0 1 -7 1 -16z m-1661 -32 c-6 -2 -14 -9 -18 -15 -6 -8 -8 -8 -8 1 0 6
-3 18 -6 26 -3 10 1 17 13 19 20 4 37 -24 19 -31z m1734 29 c0 -5 -5 -10 -11
-10 -5 0 -7 5 -4 10 3 6 8 10 11 10 2 0 4 -4 4 -10z m-1780 -30 c0 -5 -4 -10
-10 -10 -5 0 -10 5 -10 10 0 6 5 10 10 10 6 0 10 -4 10 -10z m476 -15 c35 -53
-24 -135 -97 -135 -30 0 -42 6 -55 25 -14 21 -14 30 -4 55 31 74 122 106 156
55z m954 -11 c0 -10 -6 -14 -14 -11 -18 7 -56 -20 -56 -39 0 -17 2 -17 51 -3
30 9 42 9 54 -1 42 -35 -13 -120 -78 -120 -19 0 -40 7 -47 15 -7 8 -9 15 -4
16 5 0 26 1 48 2 42 2 72 31 57 56 -7 11 -15 11 -44 1 -48 -18 -71 -8 -62 28
3 15 16 37 27 50 25 26 68 30 68 6z m-1300 -4 c0 -5 -4 -10 -10 -10 -5 0 -10
5 -10 10 0 6 5 10 10 10 6 0 10 -4 10 -10z m463 -11 c26 -13 56 -49 57 -66 0
-20 -30 -43 -57 -43 -21 0 -24 -4 -19 -20 3 -11 9 -29 12 -40 11 -36 -15 -22
-36 19 -26 52 -38 58 -50 27 -11 -29 -40 -35 -40 -8 0 29 81 142 102 142 5 0
19 -5 31 -11z m1117 1 c0 -5 -5 -10 -11 -10 -5 0 -7 5 -4 10 3 6 8 10 11 10 2
0 4 -4 4 -10z m-420 -37 c-1 -5 -20 -17 -43 -28 -32 -15 -41 -25 -39 -40 5
-28 7 -28 41 -11 61 32 71 13 11 -22 -25 -14 -40 -30 -40 -42 0 -28 15 -32 54
-13 35 16 54 14 42 -5 -3 -5 -26 -17 -52 -27 -34 -13 -49 -14 -57 -6 -18 18
-36 144 -23 158 27 29 107 56 106 36z m-527 -24 c30 -14 52 -52 43 -74 -3 -9
-20 -22 -36 -28 -32 -12 -37 -26 -20 -58 8 -14 7 -19 -2 -19 -7 0 -23 18 -36
40 -26 47 -35 49 -50 15 -6 -14 -19 -25 -28 -25 -23 0 -11 41 33 107 36 55 52
62 96 42z m97 -74 c0 -48 17 -52 55 -15 18 17 35 27 39 22 6 -10 -126 -142
-143 -142 -18 0 -13 15 13 39 22 20 23 28 18 83 -4 45 -2 59 6 54 7 -4 12 -22
12 -41z m214 -12 c3 -21 6 -52 6 -70 0 -41 10 -46 46 -22 34 22 44 24 44 6 0
-15 -69 -57 -93 -57 -10 0 -16 16 -21 53 -4 28 -10 69 -13 90 -4 29 -2 37 9
37 10 0 18 -14 22 -37z"/>
<path d="M1953 2455 c-67 -29 -85 -115 -25 -115 48 0 101 76 81 113 -12 20
-15 20 -56 2z"/>
<path d="M2094 2394 c-21 -32 -8 -47 37 -42 40 4 51 32 22 53 -26 21 -40 18
-59 -11z"/>
<path d="M778 2336 c-3 -14 -1 -26 4 -26 14 0 22 30 11 41 -7 7 -12 2 -15 -15z"/>
<path d="M1416 2265 c-11 -8 -29 -12 -43 -9 -17 5 -23 2 -23 -10 0 -26 63 -26
92 1 34 31 12 47 -26 18z"/>
<path d="M1086 2121 c-10 -11 -32 -21 -50 -23 -42 -4 -39 -22 4 -26 28 -2 41
3 60 23 16 17 20 29 14 35 -7 7 -16 4 -28 -9z"/>
<path d="M1380 2126 c-71 -23 -37 -72 63 -91 42 -8 138 17 158 41 11 14 10 19
-10 35 -18 15 -33 17 -80 13 -32 -4 -66 -2 -77 4 -13 7 -30 6 -54 -2z"/>
<path d="M1871 2107 c-42 -21 -65 -47 -42 -47 20 0 111 50 111 60 0 15 -20 11
-69 -13z"/>
<path d="M1698 2023 c-21 -8 -38 -19 -38 -23 0 -20 22 -19 60 2 64 37 49 51
-22 21z"/>
<path d="M1810 1982 c-19 -9 -35 -24 -35 -32 0 -23 70 -52 129 -54 63 -1 136
28 136 55 0 29 -32 39 -102 32 -44 -4 -67 -2 -72 6 -9 15 -15 14 -56 -7z"/>
<path d="M1210 1943 c-38 -48 -57 -105 -44 -140 32 -90 190 -97 379 -16 36 16
65 31 65 36 0 10 -38 9 -44 -2 -4 -5 -26 -16 -51 -24 -38 -13 -53 -14 -108 -2
-73 15 -133 43 -161 73 -19 21 -18 28 9 95 12 30 -12 19 -45 -20z"/>
<path d="M1548 1954 c-31 -16 -37 -34 -13 -34 22 0 75 29 75 40 0 14 -31 11
-62 -6z"/>
<path d="M741 1941 c-7 -5 -22 -6 -32 -4 -24 7 -25 -13 -1 -25 22 -12 62 3 62
23 0 17 -9 19 -29 6z"/>
<path d="M2155 1941 c-8 -14 24 -41 49 -41 26 0 63 35 47 44 -6 4 -19 1 -31
-6 -16 -10 -24 -10 -40 -1 -10 7 -22 9 -25 4z"/>
<path d="M2255 1785 c-283 -140 -456 -218 -586 -263 -72 -25 -81 -26 -136 -14
-88 18 -430 135 -778 265 -171 65 -314 117 -318 117 -4 0 -7 -6 -7 -14 0 -8
102 -51 283 -119 444 -166 655 -238 805 -277 l43 -11 -1 -57 c-2 -84 -2 -88
11 -75 6 6 13 38 16 70 l5 60 72 23 c151 48 896 397 896 419 0 23 -43 5 -305
-124z"/>
<path d="M1415 1890 c-33 -14 -37 -19 -22 -25 18 -8 77 12 77 26 0 17 -17 17
-55 -1z"/>
<path d="M1635 1880 c-10 -16 24 -50 52 -50 12 0 32 9 43 20 25 25 16 49 -9
26 -10 -9 -24 -16 -31 -16 -7 0 -21 7 -31 16 -12 11 -19 12 -24 4z"/>
<path d="M995 1849 c-4 -6 -19 -7 -35 -4 -15 3 -31 2 -34 -4 -8 -12 24 -31 52
-31 21 0 56 33 45 43 -9 10 -21 9 -28 -4z"/>
<path d="M1909 1798 c-13 -17 -18 -19 -36 -9 -16 8 -24 8 -29 0 -8 -14 22 -39
47 -39 20 0 62 48 53 61 -8 14 -18 10 -35 -13z"/>
<path d="M1078 1734 c-25 -13 -38 -34 -21 -34 22 0 73 26 73 37 0 17 -18 16
-52 -3z"/>
<path d="M462 1729 c2 -6 8 -10 13 -10 5 0 11 4 13 10 2 6 -4 11 -13 11 -9 0
-15 -5 -13 -11z"/>
<path d="M2420 1730 c0 -5 5 -10 10 -10 6 0 10 5 10 10 0 6 -4 10 -10 10 -5 0
-10 -4 -10 -10z"/>
<path d="M630 1705 c0 -9 5 -15 11 -13 6 2 11 8 11 13 0 5 -5 11 -11 13 -6 2
-11 -4 -11 -13z"/>
<path d="M1335 1709 c-10 -15 15 -39 41 -39 29 0 59 29 45 43 -7 7 -15 6 -26
-3 -13 -11 -21 -11 -35 -2 -13 8 -21 8 -25 1z"/>
<path d="M2240 1690 c0 -5 7 -10 15 -10 8 0 15 5 15 10 0 6 -7 10 -15 10 -8 0
-15 -4 -15 -10z"/>
<path d="M786 1643 c-11 -11 -6 -23 9 -23 8 0 15 4 15 9 0 13 -16 22 -24 14z"/>
<path d="M1595 1640 c-3 -6 -17 -7 -31 -4 -30 8 -32 -11 -4 -26 28 -15 60 -3
60 21 0 20 -15 26 -25 9z"/>
<path d="M2045 1601 c-7 -12 12 -24 25 -16 11 7 4 25 -10 25 -5 0 -11 -4 -15
-9z"/>
<path d="M1010 1570 c0 -5 5 -10 10 -10 6 0 10 5 10 10 0 6 -4 10 -10 10 -5 0
-10 -4 -10 -10z"/>
<path d="M1962 1519 c2 -6 8 -10 13 -10 5 0 11 4 13 10 2 6 -4 11 -13 11 -9 0
-15 -5 -13 -11z"/>
<path d="M1782 1479 c2 -6 8 -10 13 -10 5 0 11 4 13 10 2 6 -4 11 -13 11 -9 0
-15 -5 -13 -11z"/>
<path d="M1132 1471 c2 -7 7 -12 11 -12 12 1 9 15 -3 20 -7 2 -11 -2 -8 -8z"/>
<path d="M1377 1474 c-8 -8 1 -24 14 -24 5 0 9 7 9 15 0 15 -12 20 -23 9z"/>
<path d="M402 1238 c3 -7 42 -29 89 -48 46 -19 90 -39 97 -44 19 -12 37 8 20
21 -18 14 -181 83 -197 83 -7 0 -11 -6 -9 -12z"/>
<path d="M2426 1173 c-11 -11 -6 -23 9 -23 8 0 15 4 15 9 0 13 -16 22 -24 14z"/>
<path d="M427 1134 c-8 -8 1 -24 14 -24 5 0 9 7 9 15 0 15 -12 20 -23 9z"/>
<path d="M510 1065 c0 -9 5 -15 11 -13 6 2 11 8 11 13 0 5 -5 11 -11 13 -6 2
-11 -4 -11 -13z"/>
<path d="M2320 1045 c0 -8 5 -15 10 -15 6 0 10 7 10 15 0 8 -4 15 -10 15 -5 0
-10 -7 -10 -15z"/>
<path d="M670 1006 c0 -9 7 -16 16 -16 9 0 14 5 12 12 -6 18 -28 21 -28 4z"/>
<path d="M2116 1001 c-4 -7 -5 -15 -2 -18 9 -9 19 4 14 18 -4 11 -6 11 -12 0z"/>
<path d="M930 921 c0 -18 18 -21 30 -6 10 13 9 15 -9 15 -11 0 -21 -4 -21 -9z"/>
<path d="M1100 885 c0 -8 5 -15 10 -15 6 0 10 7 10 15 0 8 -4 15 -10 15 -5 0
-10 -7 -10 -15z"/>
<path d="M1970 874 c0 -8 5 -12 10 -9 6 3 10 10 10 16 0 5 -4 9 -10 9 -5 0
-10 -7 -10 -16z"/>
<path d="M1190 815 c0 -8 5 -15 10 -15 6 0 10 7 10 15 0 8 -4 15 -10 15 -5 0
-10 -7 -10 -15z"/>
<path d="M1336 813 c-11 -11 -6 -23 9 -23 8 0 15 4 15 9 0 13 -16 22 -24 14z"/>
<path d="M1558 798 c-2 -7 -2 -39 0 -70 3 -44 8 -58 19 -58 13 0 15 10 10 61
-5 60 -20 94 -29 67z"/>
<path d="M1750 775 c0 -9 5 -15 11 -13 6 2 11 8 11 13 0 5 -5 11 -11 13 -6 2
-11 -4 -11 -13z"/>
<path d="M1477 734 c-8 -8 1 -24 14 -24 5 0 9 7 9 15 0 15 -12 20 -23 9z"/>
<path d="M963 700 c-38 -23 -56 -54 -48 -80 15 -48 82 -27 112 35 29 61 -2 83
-64 45z"/>
<path d="M1110 645 c-18 -33 -4 -48 41 -43 40 4 51 32 22 53 -27 21 -48 18
-63 -10z"/>
<path d="M1276 595 c-25 -37 -20 -45 28 -45 54 0 66 20 29 50 -33 26 -37 25
-57 -5z"/>
</g>
</svg>
